# xmcd
#
# Track frame offsets:
#	150
#	20527
#	34272
#	54279
#	73761
#	90899
#	114007
#	126455
#	144153
#	161746
#	185605
#	206950
#	231503
#	260275
#	282118
#	306842
#
# Disc length: 4249 seconds
#
# Revision: 0
# Processed by: cddbd v1.5.2PL0 Copyright (c) Steve Scherf et al.
# Submitted via: EasyCDDAExtractor 4.6.9.1
#
DISCID=e1109710
DTITLE=Dany Placard - Placard Macbeth
DYEAR=2009
DGENRE=Country
TTITLE0=Désert
TTITLE1=Slush
TTITLE2=Char rouge
TTITLE3=J'm'en r'tourne
TTITLE4=J'ai jamais pensé
TTITLE5=Les mains dans l'huile
TTITLE6=Assis
TTITLE7=Western country
TTITLE8=Relaxe
TTITLE9=Raccourci
TTITLE10=Linda
TTITLE11=Rose murder
TTITLE12=Anna
TTITLE13=Je t'ai laissé
TTITLE14=Rodéo Parking
TTITLE15=Gratte-Ciel
EXTD=
EXTT0=
EXTT1=
EXTT2=
EXTT3=
EXTT4=
EXTT5=
EXTT6=
EXTT7=
EXTT8=
EXTT9=
EXTT10=
EXTT11=
EXTT12=
EXTT13=
EXTT14=
EXTT15=
PLAYORDER=
